[backend] CMD: bash /root/projects/AD-NeRF-Group7/AD-NeRF/run_adnerf.sh infer --id Obama --aud_file /root/projects/AD-NeRF-Group7/static/audios/reply_1766573005383.wav --test_size 300
[run_adnerf] MODE       = infer
[run_adnerf] ID         = Obama
[run_adnerf] AUD_FILE   = /root/projects/AD-NeRF-Group7/static/audios/reply_1766573005383.wav
[run_adnerf] TEST_SIZE  = 300
[run_adnerf] PREPROCESS = off

[run_adnerf] 调用 run_infer.sh 进行推理...
[run_adnerf] -> id       = Obama
[run_adnerf] -> aud_file  = /root/projects/AD-NeRF-Group7/static/audios/reply_1766573005383.wav
[run_adnerf] -> test_size = 300

[run_infer.sh] 使用 ID           : Obama
[run_infer.sh] Torso 配置文件     : dataset/Obama/TorsoNeRFTest_config.txt
[run_infer.sh] 输入文件          : /root/projects/AD-NeRF-Group7/static/audios/reply_1766573005383.wav (type=wav)
[run_infer.sh] 目标 wav           : dataset/Obama/reply_1766573005383.wav
[run_infer.sh] 目标 npy           : dataset/Obama/reply_1766573005383.npy
[run_infer.sh] test_size          : 300
[run_infer.sh] 输出视频           : dataset/Obama/render_out/reply_1766573005383.mp4

[run_infer.sh] 使用 ffmpeg 将输入 wav 转为 16k: dataset/Obama/reply_1766573005383.wav
ffmpeg version 4.4.2-0ubuntu0.22.04.1 Copyright (c) 2000-2021 the FFmpeg developers
  built with gcc 11 (Ubuntu 11.2.0-19ubuntu1)
  configuration: --prefix=/usr --extra-version=0ubuntu0.22.04.1 --toolchain=hardened --libdir=/usr/lib/x86_64-linux-gnu --incdir=/usr/include/x86_64-linux-gnu --arch=amd64 --enable-gpl --disable-stripping --enable-gnutls --enable-ladspa --enable-libaom --enable-libass --enable-libbluray --enable-libbs2b --enable-libcaca --enable-libcdio --enable-libcodec2 --enable-libdav1d --enable-libflite --enable-libfontconfig --enable-libfreetype --enable-libfribidi --enable-libgme --enable-libgsm --enable-libjack --enable-libmp3lame --enable-libmysofa --enable-libopenjpeg --enable-libopenmpt --enable-libopus --enable-libpulse --enable-librabbitmq --enable-librubberband --enable-libshine --enable-libsnappy --enable-libsoxr --enable-libspeex --enable-libsrt --enable-libssh --enable-libtheora --enable-libtwolame --enable-libvidstab --enable-libvorbis --enable-libvpx --enable-libwebp --enable-libx265 --enable-libxml2 --enable-libxvid --enable-libzimg --enable-libzmq --enable-libzvbi --enable-lv2 --enable-omx --enable-openal --enable-opencl --enable-opengl --enable-sdl2 --enable-pocketsphinx --enable-librsvg --enable-libmfx --enable-libdc1394 --enable-libdrm --enable-libiec61883 --enable-chromaprint --enable-frei0r --enable-libx264 --enable-shared
  libavutil      56. 70.100 / 56. 70.100
  libavcodec     58.134.100 / 58.134.100
  libavformat    58. 76.100 / 58. 76.100
  libavdevice    58. 13.100 / 58. 13.100
  libavfilter     7.110.100 /  7.110.100
  libswscale      5.  9.100 /  5.  9.100
  libswresample   3.  9.100 /  3.  9.100
  libpostproc    55.  9.100 / 55.  9.100
Guessed Channel Layout for Input Stream #0.0 : mono
Input #0, wav, from '/root/projects/AD-NeRF-Group7/static/audios/reply_1766573005383.wav':
  Duration: 00:00:34.68, bitrate: 512 kb/s
  Stream #0:0: Audio: pcm_s16le ([1][0][0][0] / 0x0001), 32000 Hz, mono, s16, 512 kb/s
Stream mapping:
  Stream #0:0 -> #0:0 (pcm_s16le (native) -> pcm_s16le (native))
Press [q] to stop, [?] for help
Output #0, wav, to 'dataset/Obama/reply_1766573005383.wav.tmp16k.wav':
  Metadata:
    ISFT            : Lavf58.76.100
  Stream #0:0: Audio: pcm_s16le ([1][0][0][0] / 0x0001), 16000 Hz, mono, s16, 256 kb/s
    Metadata:
      encoder         : Lavc58.134.100 pcm_s16le
size=       2kB time=00:00:00.00 bitrate=N/A speed=N/A    
size=    1084kB time=00:00:34.67 bitrate= 256.0kbits/s speed=1.64e+03x    
video:0kB audio:1084kB subtitle:0kB other streams:0kB global headers:0kB muxing overhead: 0.007029%
[run_infer.sh] 未找到 npy，开始从 wav 提取 DeepSpeech 特征生成 npy...
